<svg width="24" height="24" viewBox="0 0 24 24" fill="none" xmlns="http://www.w3.org/2000/svg">
<path d="M7.471 21H0.472L0.501 19.973C0.685 13.355 4.237 10.996 7.501 10.996C8.464 10.996 9.451 11.208 10.371 11.668C8.763 13.4 7.609 16.057 7.502 19.916L7.472 20.999L7.471 21ZM9.616 9.27C10.452 8.63 11 7.632 11 6.5C11 4.57 9.433 3 7.5 3C5.567 3 4 4.57 4 6.5C4 7.632 4.548 8.63 5.384 9.27C5.973 9.721 6.701 10 7.5 10C8.299 10 9.027 9.721 9.616 9.27ZM16.5 10.996C13.236 10.996 9.684 13.354 9.5 19.973L9.471 21H23.528L23.499 19.973C23.315 13.355 19.764 10.996 16.5 10.996ZM18.616 9.27C19.452 8.63 20 7.632 20 6.5C20 4.57 18.433 3 16.5 3C14.567 3 13 4.57 13 6.5C13 7.632 13.548 8.63 14.384 9.27C14.973 9.721 15.701 10 16.5 10C17.299 10 18.027 9.721 18.616 9.27Z" fill="white"/>
</svg>
