<svg width="24" height="24" viewBox="0 0 24 24" fill="none" xmlns="http://www.w3.org/2000/svg">
<path d="M7.501 19.917L7.471 21H0.472L0.501 19.973C0.685 13.355 4.237 10.996 7.501 10.996C8.464 10.996 9.451 11.208 10.371 11.668C9.927 12.146 9.52 12.698 9.159 13.324C8.652 13.12 8.105 12.995 7.501 12.995C4.734 12.995 2.931 15.218 2.563 18.999H7.56C7.537 19.301 7.51 19.599 7.501 19.917ZM23.499 19.973L23.528 21H9.472L9.501 19.973C9.685 13.355 13.237 10.996 16.501 10.996C19.765 10.996 23.317 13.354 23.501 19.973H23.499ZM21.437 19C21.07 15.219 19.267 12.996 16.499 12.996C13.731 12.996 11.929 15.219 11.561 19H21.437ZM16.499 10C15.7 10 14.972 9.721 14.383 9.27C13.547 8.63 12.999 7.632 12.999 6.5C12.999 4.57 14.566 3 16.499 3C18.432 3 19.999 4.57 19.999 6.5C19.999 7.632 19.451 8.63 18.615 9.27C18.026 9.721 17.298 10 16.499 10ZM14.999 6.5C14.999 7.327 15.672 8 16.499 8C17.326 8 17.999 7.327 17.999 6.5C17.999 5.673 17.326 5 16.499 5C15.672 5 14.999 5.673 14.999 6.5ZM7.5 3C9.433 3 11 4.57 11 6.5C11 8.43 9.433 10 7.5 10C5.567 10 4 8.43 4 6.5C4 4.57 5.567 3 7.5 3ZM7.5 5C6.673 5 6 5.673 6 6.5C6 7.327 6.673 8 7.5 8C8.327 8 9 7.327 9 6.5C9 5.673 8.327 5 7.5 5Z" fill="white"/>
</svg>
