<svg width="24" height="24" viewBox="0 0 24 24" fill="none" xmlns="http://www.w3.org/2000/svg">
<path d="M10.25 4.25C6.936 4.25 4.25 6.936 4.25 10.25C4.25 13.564 6.936 16.25 10.25 16.25C11.907 16.25 13.405 15.58 14.493 14.493C15.58 13.405 16.25 11.907 16.25 10.25C16.25 6.936 13.564 4.25 10.25 4.25ZM1.25 10.25C1.25 5.279 5.279 1.25 10.25 1.25C15.221 1.25 19.25 5.279 19.25 10.25C19.25 12.193 18.633 13.994 17.586 15.465L22.061 19.939L19.939 22.061L15.465 17.586C13.994 18.633 12.193 19.25 10.25 19.25C5.279 19.25 1.25 15.221 1.25 10.25Z" fill="white"/>
</svg>
