<svg width="24" height="24" viewBox="0 0 24 24" fill="none" xmlns="http://www.w3.org/2000/svg">
<path d="M21.591 7.14601L12.52 1.15701C12.204 0.947012 11.796 0.947012 11.48 1.15701L2.409 7.14701C2.149 7.32001 2 7.60301 2 7.90401V21.087C2 21.589 2.418 22 2.929 22H9.567C10.078 22 10.496 21.59 10.496 21.087V14.012H13.504V21.087C13.504 21.589 13.922 22 14.433 22H21.072C21.582 22 22 21.59 22 21.087V7.90401C22 7.60301 21.841 7.32001 21.591 7.14601ZM20 20L15.5 20.01L15.511 12.913C15.511 12.411 15.093 12 14.583 12H9.44C8.929 12 8.511 12.41 8.511 12.913L8.5 20H4V8.77301L12.011 3.43101L20 8.76401V20Z" fill="white"/>
</svg>
