<svg width="24" height="24" viewBox="0 0 24 24" fill="none" xmlns="http://www.w3.org/2000/svg">
<path d="M17 4C15.9 4 15 4.9 15 6C15 6.33 15.08 6.65 15.22 6.92C15.56 7.56 16.23 8 17 8C18.1 8 19 7.1 19 6C19 4.9 18.1 4 17 4ZM13 6C13 3.79 14.79 2 17 2C19.21 2 21 3.79 21 6C21 8.21 19.21 10 17 10C15.83 10 14.78 9.5 14.05 8.7L9.89 11.07C9.96 11.37 10 11.68 10 12C10 12.32 9.96 12.63 9.89 12.93L14.05 15.3C14.78 14.5 15.83 14 17 14C19.21 14 21 15.79 21 18C21 20.21 19.21 22 17 22C14.79 22 13 20.21 13 18C13 17.68 13.04 17.37 13.11 17.07L8.95 14.7C8.22 15.5 7.17 16 6 16C3.79 16 2 14.21 2 12C2 9.79 3.79 8 6 8C7.17 8 8.22 8.5 8.95 9.3L13.11 6.93C13.04 6.63 13 6.32 13 6ZM6 10C4.9 10 4 10.9 4 12C4 13.1 4.9 14 6 14C6.77 14 7.44 13.56 7.78 12.92C7.92 12.65 8 12.33 8 12C8 11.67 7.92 11.35 7.78 11.08C7.44 10.44 6.77 10 6 10ZM17 16C16.23 16 15.56 16.44 15.22 17.08C15.08 17.35 15 17.67 15 18C15 19.1 15.9 20 17 20C18.1 20 19 19.1 19 18C19 16.9 18.1 16 17 16Z" fill="#71767B"/>
</svg>
